<?xml version="1.0" encoding="UTF-8" standalone="no"?><!DOCTYPE svg PUBLIC "-//W3C//DTD SVG 1.1//EN" "http://www.w3.org/Graphics/SVG/1.1/DTD/svg11.dtd"><svg width="100%" height="100%" viewBox="0 0 3695 3931" version="1.1" xmlns="http://www.w3.org/2000/svg" xmlns:xlink="http://www.w3.org/1999/xlink" xml:space="preserve" xmlns:serif="http://www.serif.com/" style="fill-rule:evenodd;clip-rule:evenodd;stroke-linejoin:round;stroke-miterlimit:2;"><g><path d="M3400.67,2005.25l-20.959,55.833c-16.75,45.042 -424.458,1107.5 -1498.25,1597.12l-34.333,15.667l-34.333,-15.667c-1073.96,-489.833 -1481.42,-1552.12 -1498.25,-1597.17l-20.875,-55.834l46.458,-37.458c122.292,-98.667 192.417,-245.333 192.417,-402.333c-0,-157.084 -70.25,-303.75 -192.667,-402.334l-43.292,-34.875l254.334,-847.333l84.875,41.5l1.791,0.875c10.959,4.583 111.792,44.708 284.375,44.708c113.209,0 233.542,-17 357.375,-50.375c102.667,-27.708 198.959,-41.75 286.292,-41.75c128.958,0 215.5,30.375 265.417,55.834l16.125,8.25l16.125,-8.25c49.833,-25.417 136.458,-55.834 265.416,-55.834c87.25,0 183.625,14 286.209,41.75c124,33.375 244.25,50.375 357.458,50.375c172.5,0 273.458,-40.166 284.375,-44.708l88.167,-43.083l26.541,94l226.292,754.041l-43.292,34.875c-122.416,98.584 -192.666,245.25 -192.666,402.334c-0,157.083 70.166,303.666 192.416,402.333l46.459,37.5Z" style="fill:#fff;fill-rule:nonzero;"/><path d="M1847.17,3496.12c-407.292,-192.833 -759.959,-494.708 -1048.71,-897.667c-173.416,-242 -272.75,-452.041 -312.458,-544.333c132.833,-127.542 207.917,-302.542 207.917,-488.667c-0,-188.166 -76.709,-364.875 -212.209,-492.666l172.584,-575.167c59.916,15.458 150.791,31.708 267.625,31.708c127.416,0 261.833,-18.833 399.458,-55.958c88.958,-24 171.125,-36.167 244.208,-36.167c96.834,0 157.875,20.792 192,38.209l89.542,45.708l89.542,-45.708c34.125,-17.417 95.125,-38.209 192,-38.209c73.125,0 155.291,12.167 244.208,36.167c137.667,37.125 272.042,55.958 399.458,55.958c116.792,0 207.667,-16.291 267.625,-31.708l172.584,575.208c-135.5,127.792 -212.209,304.5 -212.209,492.667c0,186.125 75.125,361.125 207.917,488.667c-39.708,92.291 -139.083,302.375 -312.5,544.375c-288.75,402.958 -641.375,704.791 -1048.58,897.583Z" style="fill:#0c4468;fill-rule:nonzero;"/><g><g><clipPath id="_clip1"><path d="M1847.17,3496.12c-509.334,-241.542 -852.959,-622.792 -1052.79,-903c-170.708,-239.375 -268.917,-447.292 -308.375,-539c132.833,-127.542 207.917,-302.542 207.917,-488.667c-0,-188.166 -76.709,-364.875 -212.209,-492.666l172.584,-575.084c60.083,15.542 150.625,31.625 267.666,31.625c127.417,0 261.834,-18.833 399.459,-55.958c88.958,-24 171.125,-36.167 244.208,-36.167c152.708,0 216.5,52.125 224.667,59.459l59.625,70.708l54.25,-70.875c8.875,-7.833 72.791,-59.292 224.5,-59.292c73.125,0 155.291,12.167 244.25,36.167c137.625,37.125 272.041,55.958 399.458,55.958c117,0 207.542,-16.125 267.625,-31.625l172.583,575.125c-135.5,127.792 -212.208,304.5 -212.208,492.667c0,186.125 75.125,361.125 207.917,488.667c-39.459,91.75 -137.709,299.708 -308.375,539c-199.834,280.166 -543.417,661.416 -1052.75,902.958Z"/></clipPath><g clip-path="url(#_clip1)"><g><circle cx="1847.17" cy="3496.12" r="1802.83" style="fill:#00aeef;"/></g><g><circle cx="1847.17" cy="3496.12" r="1741.79" style="fill:#0c4468;"/></g><g><circle cx="1847.17" cy="3496.12" r="1595.62" style="fill:#00aeef;"/></g><g><circle cx="1847.17" cy="3496.12" r="348.667" style="fill:#0c4468;"/></g><g><circle cx="1847.17" cy="3496.12" r="157.792" style="fill:#fff;"/></g><g><path d="M1847.17,4233.21c-406.417,0 -737.084,-330.666 -737.084,-737.083c0,-406.417 330.667,-737.083 737.084,-737.083c406.416,-0 737.083,330.666 737.083,737.083c0,406.417 -330.667,737.083 -737.083,737.083Zm-0,-1356.04c-341.292,-0 -618.959,277.666 -618.959,619c0,341.291 277.667,618.958 618.959,618.958c341.291,0 618.958,-277.667 618.958,-618.958c0,-341.334 -277.667,-619 -618.958,-619Z" style="fill:#fff;fill-rule:nonzero;"/></g><g><path d="M1847.17,4830.29c-735.667,-0 -1334.12,-598.5 -1334.12,-1334.12c-0,-735.625 598.5,-1334.12 1334.12,-1334.12c735.625,-0 1334.12,598.5 1334.12,1334.12c-0,735.625 -598.5,1334.12 -1334.12,1334.12Zm-0,-2550.21c-670.542,0 -1216.04,545.5 -1216.04,1216.04c-0,670.542 545.5,1216.04 1216.04,1216.04c670.541,-0 1216.04,-545.5 1216.04,-1216.04c0,-670.542 -545.541,-1216.04 -1216.04,-1216.04Z" style="fill:#fff;fill-rule:nonzero;"/></g></g></g></g><g><g><path d="M1965.29,2873.79l-25.042,-699.292l154.708,-124.958l0,-366.209l-247.75,-80.041l-247.75,80.041l0,366.209l154.667,124.916l-25.042,699.292c-1.291,36.167 15.084,69.542 43.125,90.458l75,209.125l75,-209.125c27.959,-20.875 44.375,-54.25 43.084,-90.416Z" style="fill:#00aeef;fill-rule:nonzero;"/><path d="M2680.46,1784.88l-256.416,-45.125l-171.292,323.667l78.292,182.75l-349.209,606.375c-18.083,31.375 -19.166,68.541 -4.208,100.125l-31.833,219.708l164.541,-149.667c34.459,-5.625 64.917,-27.833 80.334,-59.708l304.916,-629.792l195.167,-38.083l171.292,-323.667l-181.584,-186.583Z" style="fill:#00aeef;fill-rule:nonzero;"/><path d="M1712.5,2852.58l-349.208,-606.375l78.291,-182.75l-171.291,-323.666l-256.417,45.125l-181.542,186.625l171.292,323.666l195.167,38.084l304.916,629.791c15.459,31.917 45.875,54.125 80.334,59.709l164.541,149.666l-31.875,-219.708c14.959,-31.625 13.875,-68.792 -4.208,-100.167Z" style="fill:#00aeef;fill-rule:nonzero;"/></g></g><g><path d="M3398.71,1912.62c-105.5,-85.208 -166.041,-211.708 -166.041,-347.208c-0,-135.5 60.541,-262.042 166.208,-347.125l80.458,-64.792l-239.833,-799.167l-49.375,-175.125l-161.583,78.959c-10.25,4.083 -101.084,38.875 -256.209,38.875c-107,-0 -221,-16.125 -338.958,-47.959c-108.667,-29.375 -211.167,-44.166 -304.708,-44.166c-107.459,-0 -202.125,18.75 -281.542,55.75c-79.458,-37 -174.083,-55.75 -281.542,-55.75c-93.541,-0 -196.041,14.791 -304.708,44.166c-117.958,31.792 -231.958,47.959 -338.958,47.959c-155.167,-0 -245.875,-34.709 -256.125,-38.875l-158.792,-77.709l-292,973.042l80.458,64.792c105.584,85.125 166.209,211.625 166.209,347.125c-0,135.5 -60.542,262.041 -166.125,347.208l-86.125,69.542l38.75,103.708c17.208,46.125 434.916,1134.96 1535.29,1636.79l63.709,29.041l63.708,-29.041c1100.17,-501.709 1518,-1590.67 1535.25,-1636.75l38.833,-103.792l-86.25,-69.5Zm-18.958,148.417c-16.75,45.041 -424.458,1107.5 -1498.25,1597.12l-34.333,15.666l-34.334,-15.666c-1074,-489.792 -1481.46,-1552.08 -1498.29,-1597.12l-20.875,-55.834l46.458,-37.458c122.292,-98.667 192.417,-245.333 192.417,-402.333c-0,-157.084 -70.25,-303.75 -192.667,-402.334l-43.292,-34.875l254.334,-847.333l84.875,41.5l1.791,0.875c10.959,4.583 111.792,44.708 284.375,44.708c113.209,0 233.542,-17 357.375,-50.375c102.667,-27.708 198.959,-41.75 286.292,-41.75c128.958,0 215.5,30.375 265.417,55.834l16.125,8.25l16.125,-8.25c49.833,-25.417 136.458,-55.834 265.416,-55.834c87.25,0 183.625,14 286.209,41.75c124,33.375 244.25,50.375 357.458,50.375c172.5,0 273.458,-40.166 284.375,-44.708l88.167,-43.083l26.541,94l226.292,754.041l-43.292,34.875c-122.416,98.584 -192.666,245.25 -192.666,402.334c-0,157.083 70.166,303.666 192.416,402.333l46.459,37.458l-20.917,55.834Z" style="fill:#0054a6;fill-rule:nonzero;"/></g><g><path d="M1847.17,3604.58l-8.167,-3.708c-1050.5,-479.042 -1449,-1517.88 -1465.46,-1561.88l-4.959,-13.292l11.042,-8.916c137.208,-110.709 215.875,-275.209 215.875,-451.334c0,-176.291 -78.75,-340.791 -216.125,-451.416l-10.333,-8.292l220.625,-735.25l20.625,9.583c2.5,1.125 255.833,114.209 685.416,-1.708c344.084,-92.833 505.167,1.333 551.375,37.583c46.209,-36.25 207.292,-130.416 551.375,-37.583c429.625,115.917 682.959,2.833 685.459,1.708l20.583,-9.458l6.542,21.667l214.125,713.5l-10.292,8.291c-137.333,110.584 -216.125,275.125 -216.125,451.417c0,176.125 78.708,340.667 215.875,451.333l11.042,8.917l-4.959,13.292c-16.458,44 -414.791,1082.75 -1465.46,1561.83l-8.083,3.708Zm-1431.71,-1566.33c50.625,127.917 451.959,1072.08 1431.71,1523.04c979.875,-451.042 1381.08,-1395.12 1431.71,-1523.04c-139.625,-118 -219.417,-289.5 -219.417,-472.792c0,-183.833 80.209,-355.666 220.5,-473.625l-200.333,-667.666c-70.375,25.75 -312.833,94.291 -691.292,-7.834c-383.916,-103.583 -525.458,37.834 -526.875,39.292l-14.375,14.958l-14.25,-15.041c-1.291,-1.334 -142.833,-142.792 -526.791,-39.209c-378.417,102.084 -620.917,33.584 -691.334,7.834l-200.333,667.666c140.333,117.959 220.5,289.792 220.5,473.625c-0,183.292 -79.792,354.792 -219.417,472.792Z" style="fill:#00aeef;fill-rule:nonzero;"/></g><g><g><path d="M1922.79,2875.33l-31.084,-867.083l-89.125,0l-31.083,867.083c-1.333,37.209 28.458,68.125 65.708,68.125l19.834,0c37.25,-0.041 67.083,-30.916 65.75,-68.125Z" style="fill:#0c4468;fill-rule:nonzero;"/><path d="M1887.46,2876.58c0.334,8.334 -2.708,16.209 -8.5,22.209c-5.791,6 -13.541,9.291 -21.916,9.291l-9.917,0l0,-864.541l10.458,-0l29.875,833.041Z" style="fill:#fff;fill-rule:nonzero;"/><path d="M2052.38,2029.25l-205.208,165.792l-205.209,-165.792l0,-314.917l205.209,-66.333l205.208,66.333l0,314.917Z" style="fill:#0c4468;fill-rule:nonzero;"/><path d="M1847.17,1703.42l152.5,49.291l-0,251.375l-152.5,123.167l-152.5,-123.167l-0,-251.375l152.5,-49.291m-0,-10.125l-162.125,52.416l-0,262.959l162.125,130.958l162.125,-130.958l-0,-262.959l-162.125,-52.416Z" style="fill:#fff;fill-rule:nonzero;"/><path d="M2009.29,1745.71l-0,262.959l-162.125,130.958l-0,-446.333l162.125,52.416Z" style="fill:#fff;fill-rule:nonzero;"/><path d="M1809.12,2925.96l76.042,0l-19,120.417l-19,120.375l-19.042,-120.375l-19,-120.417Z" style="fill:#0c4468;fill-rule:nonzero;"/><rect x="1830.54" y="2607.46" width="62.833" height="20.958" style="fill:#0c4468;"/><rect x="1830.54" y="2697.5" width="62.833" height="20.958" style="fill:#0c4468;"/><rect x="1830.54" y="2787.58" width="62.833" height="20.958" style="fill:#0c4468;"/></g><g><g><path d="M2152.38,2944.54l378.083,-780.917l-78.75,-41.667l-433.041,751.834c-18.584,32.25 -6.709,73.5 26.208,90.916l17.542,9.292c32.916,17.417 73.708,4.042 89.958,-29.458Z" style="fill:#0c4468;fill-rule:nonzero;"/><path d="M2120.58,2929.12c-3.625,7.542 -9.958,13.083 -17.916,15.667c-7.917,2.583 -16.334,1.875 -23.709,-2l-8.75,-4.625l404.375,-764.167l9.25,4.875l-363.25,750.25Z" style="fill:#fff;fill-rule:nonzero;"/><path d="M2662.62,2257.33l-258.917,50.542l-103.875,-242.5l147.334,-278.375l212.375,37.375l150.375,154.583l-147.292,278.375Z" style="fill:#0c4468;fill-rule:nonzero;"/><path d="M2633.62,1873.33l111.75,114.875l-117.583,222.167l-192.417,37.542l-77.167,-180.209l117.584,-222.166l157.833,27.791m4.75,-8.958l-167.792,-29.5l-123,232.417l82.042,191.583l204.542,-39.917l123,-232.416l-118.792,-122.167Z" style="fill:#fff;fill-rule:nonzero;"/><path d="M2757.17,1986.54l-123,232.416l-204.542,39.917l208.75,-394.5l118.792,122.167Z" style="fill:#fff;fill-rule:nonzero;"/><path d="M2061.83,2953.92l33.584,17.791l-73.084,97.542l-73.125,97.5l39.5,-115.292l39.5,-115.333l33.625,17.792Z" style="fill:#0c4468;fill-rule:nonzero;"/><path d="M2251.75,2694.02l-55.539,-29.387l-9.802,18.525l55.538,29.387l9.803,-18.525Z" style="fill:#0c4468;"/><path d="M2209.62,2773.65l-55.538,-29.387l-9.802,18.525l55.538,29.387l9.802,-18.525Z" style="fill:#0c4468;"/><path d="M2167.49,2853.28l-55.538,-29.387l-9.802,18.525l55.538,29.387l9.802,-18.525Z" style="fill:#0c4468;"/></g><g><path d="M1541.96,2944.54l-378.083,-780.917l78.75,-41.667l433,751.834c18.583,32.25 6.708,73.5 -26.208,90.916l-17.542,9.292c-32.875,17.417 -73.708,4.042 -89.917,-29.458Z" style="fill:#0c4468;fill-rule:nonzero;"/><path d="M1573.75,2929.12c3.625,7.542 9.958,13.083 17.917,15.667c7.916,2.583 16.333,1.875 23.708,-2l8.75,-4.625l-404.375,-764.167l-9.25,4.875l363.25,750.25Z" style="fill:#fff;fill-rule:nonzero;"/><path d="M1031.71,2257.33l258.917,50.542l103.833,-242.5l-147.291,-278.375l-212.417,37.375l-150.375,154.583l147.333,278.375Z" style="fill:#0c4468;fill-rule:nonzero;"/><path d="M1060.67,1873.33l157.833,-27.75l117.583,222.167l-77.166,180.208l-192.417,-37.541l-117.583,-222.167l111.75,-114.917m-4.709,-8.958l-118.791,122.167l123,232.416l204.541,39.917l82.042,-191.583l-123,-232.417l-167.792,29.5Z" style="fill:#fff;fill-rule:nonzero;"/><path d="M937.167,1986.54l123,232.416l204.541,39.917l-208.75,-394.5l-118.791,122.167Z" style="fill:#fff;fill-rule:nonzero;"/><path d="M1632.5,2953.92l-33.625,17.791l73.125,97.542l73.125,97.5l-39.5,-115.292l-39.542,-115.333l-33.583,17.792Z" style="fill:#0c4468;fill-rule:nonzero;"/><path d="M1452.45,2712.47l55.538,-29.387l-9.802,-18.525l-55.538,29.387l9.802,18.525Z" style="fill:#0c4468;"/><path d="M1494.59,2792.08l55.538,-29.387l-9.802,-18.525l-55.538,29.387l9.802,18.525Z" style="fill:#0c4468;"/><path d="M1536.72,2871.69l55.539,-29.387l-9.803,-18.525l-55.538,29.387l9.802,18.525Z" style="fill:#0c4468;"/></g></g></g><g><path d="M1449.67,1398.38c-3.917,-2.333 -8.292,-3.5 -13.084,-3.5l-100.458,0l0,126.667l100.458,-0c4.792,-0 9.167,-1.167 13.084,-3.5c3.916,-2.334 7.083,-5.5 9.5,-9.5c2.416,-4 3.625,-8.334 3.625,-13l-0,-74.584c-0,-4.791 -1.209,-9.166 -3.625,-13.125c-2.417,-4 -5.584,-7.125 -9.5,-9.458Zm-14.542,95.667l-71.958,-0l-0,-71.792l71.958,0l0,71.792Z" style="fill:#fff;fill-rule:nonzero;"/><path d="M1677.29,1398.38c-3.917,-2.333 -8.292,-3.5 -13.084,-3.5l-74.416,0c-4.709,0 -9.042,1.167 -13,3.5c-4,2.333 -7.167,5.5 -9.5,9.417c-2.334,3.916 -3.5,8.291 -3.5,13.125l-0,100.625l27.25,-0l-0,-40.834l71.791,0l0,40.834l27.625,-0l0,-100.625c0,-4.792 -1.208,-9.167 -3.625,-13.125c-2.416,-3.959 -5.583,-7.084 -9.541,-9.417Zm-14.5,54.875l-71.792,0l-0,-30.958l71.792,-0l-0,30.958Z" style="fill:#fff;fill-rule:nonzero;"/><path d="M1904.96,1398.54c-3.916,-2.334 -8.291,-3.5 -13.083,-3.5l-100.458,-0l-0,126.5l27.25,-0l-0,-41.5l36.166,-0.084l34.917,41.625l28.125,0l0,-9.333l-27.417,-32.375l1.375,0c4.792,0 9.167,-1.167 13.084,-3.5c3.916,-2.333 7.125,-5.5 9.5,-9.5c2.416,-4 3.625,-8.333 3.625,-13l-0,-32.708c-0,-4.709 -1.209,-9.042 -3.625,-13c-2.375,-4.125 -5.542,-7.292 -9.459,-9.625Zm-86.291,23.75l71.791,-0l0,30.083l-71.791,0l-0,-30.083Z" style="fill:#fff;fill-rule:nonzero;"/><path d="M2011.12,1422.29l49.625,-0l0,99.208l27.417,0l-0,-99.208l49.625,-0l-0,-27.459l-126.667,0l0,27.459Z" style="fill:#fff;fill-rule:nonzero;"/><path d="M2358.21,1432.67l0,-11.792c0,-4.792 -1.208,-9.167 -3.583,-13.125c-2.417,-3.917 -5.583,-7.083 -9.5,-9.417c-3.917,-2.333 -8.25,-3.5 -12.917,-3.5l-74.583,0c-4.708,0 -9.042,1.167 -13,3.5c-4,2.334 -7.167,5.5 -9.5,9.417c-2.333,3.917 -3.5,8.292 -3.5,13.125l0,25c0,4.792 1.167,9.167 3.5,13.125c2.333,3.917 5.5,7.083 9.5,9.417c4,2.333 8.333,3.5 13,3.5l73,-0l0,22.166l-71.792,0l0,-10.375l-27.25,0l0,11.792c0,4.708 1.167,9.042 3.5,13c2.334,4 5.5,7.167 9.5,9.5c4,2.333 8.334,3.5 13,3.5l74.584,-0c4.708,-0 9,-1.167 12.916,-3.5c3.917,-2.333 7.084,-5.5 9.5,-9.5c2.417,-4 3.584,-8.333 3.584,-13l-0,-25c-0,-4.792 -1.209,-9.167 -3.584,-13.125c-2.416,-3.917 -5.583,-7.083 -9.5,-9.417c-3.916,-2.333 -8.25,-3.5 -12.916,-3.5l-73.375,0l-0,-22.166l71.791,-0l0,10.375l27.625,-0Z" style="fill:#fff;fill-rule:nonzero;"/></g><path d="M2128.67,492.333c68.25,0 145.583,11.542 229.875,34.25c142.333,38.375 281.541,57.875 413.833,57.875c93.667,0 171.542,-10.208 229.625,-21.708l148.292,494.167c-132.459,136.875 -205,316.166 -205,508.583c-0,188.458 69.833,364.792 197.458,500.708c-48.417,107.209 -141.625,290.709 -291.75,500.209c-277.583,387.291 -615.208,679.416 -1003.83,868.583c-388.709,-189.208 -726.375,-481.333 -1003.92,-868.625c-150.083,-209.458 -243.292,-393 -291.667,-500.167c127.625,-135.958 197.459,-312.291 197.459,-500.75c-0,-192.416 -72.542,-371.708 -205,-508.583l148.291,-494.167c58.084,11.542 135.917,21.709 229.625,21.709c132.292,-0 271.5,-19.459 413.834,-57.875c84.25,-22.75 161.625,-34.25 229.875,-34.25c85.875,-0 138.166,17.5 166.916,32.166l89.542,45.709l25.083,12.791l25.084,-12.791l89.541,-45.709c28.667,-14.625 80.959,-32.125 166.834,-32.125m-0,-55.125c-96.834,0 -157.875,20.792 -192,38.209l-89.542,45.708l-89.542,-45.708c-34.125,-17.417 -95.166,-38.209 -192,-38.209c-73.125,0 -155.291,12.167 -244.208,36.167c-137.625,37.125 -272.042,55.958 -399.458,55.958c-116.834,0 -207.709,-16.291 -267.625,-31.708l-172.584,575.167c135.5,127.791 212.209,304.5 212.209,492.666c-0,186.125 -75.084,361.125 -207.917,488.667c39.708,92.292 139.042,302.333 312.458,544.333c288.75,402.959 641.417,704.834 1048.71,897.667c407.208,-192.833 759.833,-494.667 1048.62,-897.625c173.416,-242 272.791,-452.083 312.5,-544.375c-132.792,-127.542 -207.917,-302.542 -207.917,-488.667c0,-188.166 76.708,-364.875 212.208,-492.666l-172.583,-575.209c-59.917,15.459 -150.833,31.709 -267.625,31.709l-0.042,-0c-127.375,-0 -261.791,-18.834 -399.416,-55.959c-88.959,-23.958 -171.125,-36.125 -244.25,-36.125Z" style="fill:#0054a6;fill-rule:nonzero;"/><g><path d="M1240.67,1437.83l-0,40.834l-130.792,-10.209l-130.75,-10.208l130.75,-10.208l130.792,-10.209Z" style="fill:#fff;fill-rule:nonzero;"/><path d="M2453.67,1478.67l-0,-40.834l130.75,10.209l130.791,10.208l-130.791,10.208l-130.75,10.209Z" style="fill:#fff;fill-rule:nonzero;"/></g><g><path d="M1055.54,1284.25c-21.334,0 -41.042,-5.333 -59.167,-16c-18.125,-10.667 -32.542,-25.042 -43.167,-43.167c-10.666,-18.125 -16,-37.833 -16,-59.166l0,-53.584l123.959,0l-0,47.167l326.25,0l-0,-100.75l-331.875,0c-21.334,0 -41.042,-5.333 -59.167,-16c-18.125,-10.667 -32.542,-24.917 -43.167,-42.792c-10.666,-17.833 -16,-37.708 -16,-59.583l0,-113.542c0,-21.833 5.334,-41.708 16,-59.583c10.667,-17.833 25.042,-32.125 43.167,-42.792c18.125,-10.666 37.833,-16 59.167,-16l339.041,0c21.334,0 40.917,5.334 58.792,16c17.875,10.667 32.25,24.917 43.167,42.792c10.916,17.875 16.375,37.708 16.375,59.583l-0,53.584l-125.542,-0l0,-47.167l-326.25,0l0,100.75l333.458,0c21.334,0 40.917,5.333 58.792,16c17.875,10.667 32.25,24.917 43.167,42.792c10.916,17.875 16.375,37.708 16.375,59.583l-0,113.542c-0,21.333 -5.459,41.041 -16.375,59.166c-10.917,18.125 -25.334,32.542 -43.167,43.167c-17.875,10.667 -37.458,16 -58.792,16l-339.041,0Z" style="fill:#fff;fill-rule:nonzero;"/><path d="M1602.46,1284.25l0,-575.75l531.792,0l0,124.75l-406.208,0l-0,100.75l327.083,0l0,124.75l-327.083,0l-0,225.5l-125.584,0Z" style="fill:#fff;fill-rule:nonzero;"/><path d="M2181.42,708.5l435,0c21.333,0 40.916,5.333 58.791,16c17.834,10.667 32.25,24.917 43.167,42.792c10.917,17.875 16.375,37.708 16.375,59.583l0,107.958c0,6.917 -0.417,13.459 -1.208,19.584c-0.792,6.125 -2.292,11.875 -4.417,17.208c8,10.125 14.667,21.875 20,35.167c5.333,13.333 8,26.666 8,40l0,119.125c0,21.333 -5.458,41.041 -16.375,59.166c-10.917,18.125 -25.333,32.542 -43.167,43.167c-17.875,10.667 -37.708,16 -59.583,16l-456.583,0l-0,-575.75Zm427.833,220.708l0,-95.958l-303.875,0l0,95.958l303.875,0Zm22.375,230.292l0,-105.542l-326.25,0l0,105.542l326.25,0Z" style="fill:#fff;fill-rule:nonzero;"/></g><g><g><path d="M1106.38,2753.5l52.958,0l0,14.75l-70.416,0l-0,-93.875l68.541,0l0,14.75l-51.083,0l0,64.375Zm-1.375,-40.083l46.667,-0l-0,14.375l-46.667,-0l0,-14.375Z" style="fill:#fff;fill-rule:nonzero;"/><path d="M1207.88,2769.58c-7.333,0 -14.333,-1.041 -21,-3.166c-6.667,-2.084 -12,-4.792 -16.042,-8.125l6.042,-13.542c3.75,2.958 8.417,5.417 13.958,7.375c5.542,1.958 11.209,2.958 17.042,2.958c4.917,0 8.875,-0.541 11.917,-1.625c3.041,-1.083 5.291,-2.5 6.708,-4.375c1.417,-1.833 2.125,-3.916 2.125,-6.25c-0,-2.833 -1.042,-5.166 -3.083,-6.916c-2.042,-1.75 -4.709,-3.125 -8,-4.167c-3.25,-1.042 -6.875,-1.958 -10.875,-2.833c-3.959,-0.834 -7.959,-1.875 -11.917,-3.167c-3.958,-1.25 -7.625,-2.833 -10.917,-4.75c-3.291,-1.917 -5.958,-4.5 -8,-7.708c-2,-3.209 -3,-7.334 -3,-12.334c0,-5.083 1.375,-9.75 4.084,-14c2.708,-4.25 6.875,-7.625 12.458,-10.166c5.583,-2.542 12.667,-3.834 21.25,-3.834c5.625,0 11.208,0.709 16.75,2.167c5.542,1.417 10.375,3.5 14.5,6.167l-5.5,13.541c-4.208,-2.5 -8.542,-4.375 -13,-5.583c-4.458,-1.208 -8.75,-1.792 -12.875,-1.792c-4.75,0 -8.625,0.584 -11.667,1.75c-3.041,1.167 -5.25,2.709 -6.625,4.625c-1.375,1.917 -2.083,4.042 -2.083,6.375c-0,2.875 1,5.167 3,6.917c2,1.75 4.667,3.125 7.917,4.083c3.25,1 6.916,1.917 10.916,2.834c4,0.916 8,1.958 11.917,3.166c3.917,1.209 7.542,2.792 10.875,4.709c3.292,1.916 5.958,4.458 8,7.666c2,3.167 3,7.209 3,12.125c0,5 -1.375,9.625 -4.083,13.875c-2.75,4.25 -6.917,7.625 -12.542,10.167c-5.542,2.542 -12.667,3.833 -21.25,3.833Z" style="fill:#fff;fill-rule:nonzero;"/><path d="M1280.83,2768.25l0,-79.125l-31.125,0l0,-14.75l79.667,0l0,14.75l-31.125,0l-0,79.125l-17.417,0Z" style="fill:#fff;fill-rule:nonzero;"/><path d="M1342.12,2769.17c-3.125,-0 -5.792,-1.042 -7.917,-3.167c-2.166,-2.083 -3.208,-4.792 -3.208,-8.125c0,-3.292 1.083,-5.958 3.208,-8c2.125,-2 4.792,-3 7.917,-3c2.958,0 5.5,1 7.625,3c2.167,2 3.208,4.667 3.208,8c0,3.292 -1.083,6 -3.208,8.125c-2.125,2.125 -4.708,3.167 -7.625,3.167Z" style="fill:#fff;fill-rule:nonzero;"/></g><g><path d="M2339.92,2768.25l-0,-11.667l37.416,-35.416c3.042,-2.959 5.334,-5.542 6.834,-7.792c1.5,-2.208 2.541,-4.292 3.083,-6.25c0.542,-1.917 0.792,-3.75 0.792,-5.417c-0,-4.291 -1.5,-7.625 -4.5,-10c-3,-2.375 -7.417,-3.541 -13.209,-3.541c-4.458,-0 -8.541,0.791 -12.291,2.416c-3.709,1.625 -6.917,4.042 -9.584,7.25l-12.208,-9.25c3.667,-4.916 8.625,-8.75 14.833,-11.458c6.209,-2.75 13.167,-4.083 20.834,-4.083c6.791,-0 12.708,1.083 17.708,3.291c5,2.209 8.875,5.292 11.667,9.334c2.75,4.041 4.166,8.75 4.166,14.208c0,3.125 -0.416,6.208 -1.208,9.167c-0.792,3 -2.333,6.166 -4.542,9.5c-2.25,3.375 -5.5,7.083 -9.791,11.208l-32.167,30.292l-3.625,-6.584l55,0l0,14.75l-69.208,0l-0,0.042Z" style="fill:#fff;fill-rule:nonzero;"/><path d="M2458.5,2769.58c-7.5,0 -14.208,-1.875 -20.125,-5.625c-5.917,-3.75 -10.583,-9.208 -14,-16.416c-3.458,-7.209 -5.167,-15.959 -5.167,-26.209c0,-10.291 1.709,-19 5.167,-26.208c3.417,-7.208 8.125,-12.667 14,-16.417c5.917,-3.75 12.625,-5.625 20.125,-5.625c7.417,0 14.083,1.875 20,5.625c5.917,3.75 10.583,9.209 14,16.417c3.417,7.208 5.167,15.958 5.167,26.208c-0,10.292 -1.709,19.042 -5.167,26.209c-3.458,7.208 -8.125,12.666 -14,16.416c-5.958,3.75 -12.583,5.625 -20,5.625Zm0,-15.166c4.292,-0 8.042,-1.167 11.25,-3.542c3.208,-2.375 5.75,-6 7.583,-10.917c1.834,-4.916 2.75,-11.125 2.75,-18.625c0,-7.5 -0.916,-13.708 -2.75,-18.625c-1.833,-4.916 -4.375,-8.541 -7.583,-10.916c-3.208,-2.375 -6.958,-3.542 -11.25,-3.542c-4.292,-0 -8.083,1.208 -11.333,3.542c-3.25,2.375 -5.834,6 -7.709,10.916c-1.875,4.917 -2.791,11.125 -2.791,18.625c-0,7.5 0.916,13.709 2.791,18.625c1.875,4.917 4.459,8.542 7.709,10.917c3.25,2.375 7.041,3.542 11.333,3.542Z" style="fill:#fff;fill-rule:nonzero;"/><path d="M2508.08,2768.25l0,-11.667l37.417,-35.416c3.042,-2.959 5.333,-5.542 6.833,-7.792c1.5,-2.208 2.542,-4.292 3.084,-6.25c0.541,-1.917 0.791,-3.75 0.791,-5.417c0,-4.291 -1.5,-7.625 -4.5,-10c-3,-2.375 -7.416,-3.541 -13.208,-3.541c-4.458,-0 -8.542,0.791 -12.292,2.416c-3.708,1.625 -6.916,4.042 -9.583,7.25l-12.208,-9.25c3.666,-4.916 8.625,-8.75 14.833,-11.458c6.208,-2.75 13.167,-4.083 20.833,-4.083c6.792,-0 12.709,1.083 17.709,3.291c5,2.209 8.875,5.292 11.666,9.334c2.75,4.041 4.167,8.75 4.167,14.208c0,3.125 -0.417,6.208 -1.208,9.167c-0.792,3 -2.334,6.166 -4.542,9.5c-2.25,3.375 -5.5,7.083 -9.792,11.208l-32.166,30.292l-3.625,-6.584l55,0l-0,14.75l-69.209,0l0,0.042Z" style="fill:#fff;fill-rule:nonzero;"/><path d="M2616.71,2769.58c-6.541,0 -12.958,-0.958 -19.25,-2.833c-6.291,-1.875 -11.583,-4.542 -15.875,-8.042l7.375,-13.541c3.417,2.791 7.542,5 12.459,6.708c4.916,1.708 9.958,2.542 15.166,2.542c6.167,-0 11.042,-1.292 14.625,-3.834c3.584,-2.541 5.375,-6 5.375,-10.375c0,-4.291 -1.625,-7.708 -4.916,-10.208c-3.25,-2.5 -8.459,-3.75 -15.625,-3.75l-8.584,0l0,-11.917l26.834,-31.916l2.416,6.708l-50.416,0l-0,-14.75l63.833,0l0,11.667l-26.833,31.791l-9.125,-5.208l5.375,0c11.458,0 20.041,2.583 25.833,7.708c5.75,5.125 8.667,11.75 8.667,19.792c-0,5.292 -1.334,10.167 -4.042,14.667c-2.667,4.5 -6.75,8.125 -12.25,10.791c-5.542,2.667 -12.542,4 -21.042,4Z" style="fill:#fff;fill-rule:nonzero;"/></g></g></g></svg>